<svg xmlns="http://www.w3.org/2000/svg">
<defs>
<font horiz-adv-x="1062" ><font-face
    font-family="UTM Avo"
    units-per-em="2048"
    panose-1="2 4 6 3 5 5 6 2 2 4"
    ascent="2460"
    descent="-541"
    alphabetic="0" />
<missing-glyph horiz-adv-x="5040" d="M3351 2045H3361Q3398 2035 3398 1993Q3398 1981 3366 1936H3338Q3338 1960 3366 1990L3368 2000Q3363 2013 3358 2015H3349Q3341 2015 3339 1996H3309Q3315 2045 3351 2045ZM2019 2016L2048 1985Q2048 1969 2008 1955H1989L1930
1967L1919 1955L1891 1980Q1902 2009 1934 2009H1945L1987 1998H1989Q1999 1998 2019 2016ZM468 1980H610V1920H516V1845H605V1786H516V1657L511 1652H462V1975L468 1980ZM1155 1980H1198L1204 1975V1897H1234V1845H1204V1657L1198 1652H1149V1845H1124V1897H1149V1975L1155
1980ZM1621 1980H1663L1667 1975V1881H1670Q1693 1905 1724 1905H1726Q1784 1905 1809 1834L1811 1795V1652H1759V1767Q1759 1847 1717 1847H1710Q1667 1847 1667 1761V1652H1616V1975L1621 1980ZM2200 1980H2249L2254 1975V1753Q2264 1702 2299 1702Q2343 1709
2343 1761V1975L2348 1980H2397V1764Q2397 1679 2331 1652Q2316 1644 2296 1644Q2249 1644 2214 1699Q2200 1723 2200 1756V1980ZM2435 1980H2594V1920H2538V1652H2485V1920H2430V1975L2435 1980ZM2621 1980H2692Q2699 1976 2775 1729H2777L2857 1980H2930V1652H2876V1894H2874L2800
1652H2756Q2752 1652 2698 1834L2679 1894H2676V1652H2621V1980ZM3760 1980H3812V1652H3767L3762 1657V1668L3765 1670L3762 1684Q3733 1644 3684 1644Q3617 1644 3584 1735L3579 1774V1777Q3579 1871 3671 1902L3694 1905Q3729 1905 3757 1873H3760V1980ZM2057
1928H2093L2097 1922V1873H2052V1652H2004V1675Q1981 1644 1945 1644Q1856 1658 1856 1741V1897H1907V1793Q1907 1714 1933 1707L1951 1702H1957Q1983 1702 1996 1738L1999 1764V1897H2052V1922L2057 1928ZM3476 1928V1873H3445V1652H3398V1677H3396Q3381 1644
3339 1644Q3271 1644 3253 1722L3250 1751V1897H3302V1777Q3302 1727 3321 1709L3342 1702H3351Q3393 1702 3393 1771V1897H3420Q3424 1897 3424 1925L3427 1928H3476ZM758 1905Q826 1905 861 1828Q870 1810 873 1774Q873 1686 783 1647L751 1644Q688 1644 650

<glyph unicode=" " glyph-name="space" horiz-adv-x="632" />
<glyph unicode="!" glyph-name="exclam" horiz-adv-x="681" d="M165 500V1516H515V500H165ZM165 0V348H515V0H165Z" />
<glyph unicode="&quot;" glyph-name="quotedbl" horiz-adv-x="948" d="M808 907H589L522 1516H878L808 907ZM356 907H137L69 1516H425L356 907Z" />
<glyph unicode="#" glyph-name="numbersign" horiz-adv-x="1265" d="M1173 825H944L923 676H1150L1120 449H890L841 92H610L659 449H499L450 92H217L266 449H63L94 676H299L319 825H114L145 1053H350L395 1376H628L583 1053H743L788 1376H1021L976 1053H1204L1173
825ZM552 825L532 676H692L712 825H552Z" />
<glyph unicode="$" glyph-name="dollar" horiz-adv-x="860" d="M1101 328T1010 215Q923 107 779 59V-156H503V51Q337 87 253 190Q163 302 163 459H513Q522 313 634 313Q751 313 751 434Q751 516 661 569Q628 589 569 613L463 656Q400 683 357 709Q302 743 265
783Q175 882 175 1040Q175 1364 503 1454V1661H779V1454Q1068 1387 1064 1075V1065H747Q739 1194 634 1194Q523 1194 523 1079Q523 998 626 940Q662 920 717 899L800 868Q937 815 1015 719Q1101 615 1101 475Q1101 328 1010 215Z" />
<glyph unicode="%" glyph-name="percent" horiz-adv-x="1757" d="M1683 188T1574 79Q1466 -31 1314 -31Q1160 -31 1052 78Q943 186 943 340Q943 494 1052 602Q1160 711 1314 711Q1467 711 1575 601Q1683 493 1683 340Q1683 188 1574 79ZM677 0H442L1068 1516H1306L677
0ZM810 1023T702 915Q594 807 442 807Q290 807 181 915Q73 1023 73 1176Q73 1328 181 1437Q289 1546 442 1546Q595 1546 703 1438Q810 1329 810 1176Q810 1023 702 915ZM1455 483T1314 483Q1171 483 1171 340Q1171 197 1314 197Q1455 197 1455 340Q1455 483 1314
483ZM583 1319T442 1319Q300 1319 300 1176Q300 1034 442 1034Q583 1034 583 1178Q583 1319 442 1319Z" />
<glyph unicode="&amp;" glyph-name="ampersand" horiz-adv-x="1552" d="M1376 610Q1326 494 1261 410L1468 197L1237 -31L1058 154Q953 63 850 18Q735 -31 606 -31Q406 -31 258 87Q100 214 100 410Q100 547 183 654Q219 700 273 745Q316 782 381 825Q237 972 237
1153Q237 1323 363 1435Q485 1544 657 1544Q822 1544 936 1441Q1054 1334 1054 1171Q1054 1060 996 970Q946 894 845 823L1024 643L1134 891H1493L1376 610ZM747 1270T659 1270Q567 1270 567 1169Q567 1125 594 1080Q613 1047 653 1006Q675 1028 688 1042Q706 1062
718 1080Q747 1126 747 1174Q747 1270 659 1270ZM589 621Q534 577 510 546Q473 498 473 444Q473 295 647 295Q761 295 831 377L589 621Z" />
<glyph unicode="&apos;" glyph-name="quotesingle" horiz-adv-x="643" d="M499 1085Q499 981 448 913Q391 838 290 838H143V1020L194 1019Q226 1020 247 1025Q305 1039 305 1098V1167H143V1516H499V1085Z" />
<glyph unicode="(" glyph-name="parenleft" horiz-adv-x="968" d="M881 -541Q538 -411 338 -138Q133 143 133 502Q133 862 339 1142Q538 1415 881 1544V1188Q710 1093 608 892Q512 703 512 498Q512 294 608 106Q710 -93 881 -186V-541Z" />
<glyph unicode=")" glyph-name="parenright" horiz-adv-x="968" d="M836 140T631 -140Q431 -413 88 -541V-186Q258 -92 361 110Q457 298 457 504Q457 708 361 895Q258 1095 88 1188V1544Q430 1415 630 1141Q836 860 836 500Q836 140 631 -140Z" />
<glyph unicode="*" glyph-name="asterisk" horiz-adv-x="1372" d="M868 1020L1038 795L847 651L679 887L518 651L327 795L503 1020L235 1104L309 1327L571 1229L565 1516H808L794 1229L1058 1327L1136 1104L868 1020Z" />
<glyph unicode="+" glyph-name="plus" horiz-adv-x="1228" d="M778 354V0H450V354H98V682H450V1036H778V682H1130V354H778Z" />
<glyph unicode="," glyph-name="comma" horiz-adv-x="643" d="M499 -82Q499 -184 447 -253Q389 -330 290 -330H145V-147L196 -148Q228 -148 248 -142Q305 -128 305 -70V0H145V348H499V-82Z" />
<glyph unicode="-" glyph-name="hyphen" horiz-adv-x="575" d="M0 424V758H575V424H0Z" />
<glyph unicode="." glyph-name="period" horiz-adv-x="643" d="M145 0V348H499V0H145Z" />
<glyph unicode="/" glyph-name="slash" horiz-adv-x="1214" d="M526 -205H147L690 1516H1067L526 -205Z" />
<glyph unicode="0" glyph-name="zero" horiz-adv-x="1265" d="M1197 547Q1197 370 1123 238Q1043 98 888 27Q772 -29 638 -29Q520 -29 407 18Q67 161 67 547V969Q67 1362 409 1499Q525 1544 638 1544Q755 1544 870 1495Q1197 1352 1197 969V547ZM810 979Q810 1080
774 1136Q729 1204 632 1204Q540 1204 493 1135Q454 1076 454 979V537Q454 439 493 380Q539 311 632 311Q729 311 774 379Q810 436 810 537V979Z" />
<glyph unicode="1" glyph-name="one" horiz-adv-x="1265" d="M460 0V1190H212V1516H847V0H460Z" />
<glyph unicode="2" glyph-name="two" horiz-adv-x="1265" d="M104 0V301Q179 350 229 384Q295 429 348 470Q474 567 567 670Q605 711 637 752Q676 802 705 849Q776 966 776 1057Q776 1204 633 1204Q539 1204 496 1127Q464 1070 459 965H90Q93 1075 110 1146Q130
1236 180 1313Q254 1427 383 1488Q503 1544 647 1544Q803 1544 926 1480Q1061 1410 1124 1278Q1163 1190 1163 1104Q1163 987 1116 872Q1075 770 996 666Q931 580 834 485Q795 447 746 403Q712 371 659 326H1173V0H104Z" />
<glyph unicode="3" glyph-name="three" horiz-adv-x="1265" d="M1185 238T1005 99Q839 -29 624 -29Q485 -29 361 23Q220 80 151 184Q112 243 92 313Q76 370 67 453H458Q490 311 634 311Q798 311 798 481Q798 597 673 626Q629 636 562 636L458 635V920H501Q526
920 545 921Q595 925 628 937Q714 969 714 1071Q714 1204 608 1204Q492 1204 489 1073H108Q111 1292 262 1422Q405 1544 626 1544Q817 1544 954 1435Q1101 1317 1101 1130Q1101 921 901 813Q1185 716 1185 446Q1185 238 1005 99Z" />
<glyph unicode="4" glyph-name="four" horiz-adv-x="1265" d="M1068 266V0H698V266H30V549L708 1516H1068V569H1236V266H1068ZM722 1044H718L419 569H722V1044Z" />
<glyph unicode="5" glyph-name="five" horiz-adv-x="1265" d="M1212 410T1167 307Q1021 -31 631 -31Q415 -31 258 81Q92 200 53 406H442Q510 311 620 311Q704 311 764 370Q825 429 825 512Q825 711 618 711Q476 711 420 580L106 657L237 1516H1075V1190H534L502
983Q584 1028 706 1028Q1044 1028 1171 723Q1212 625 1212 520Q1212 410 1167 307Z" />
<glyph unicode="6" glyph-name="six" horiz-adv-x="1265" d="M1229 300T1059 135Q891 -29 641 -29Q381 -29 213 133Q43 297 43 557Q43 662 82 770Q117 866 182 963L559 1516H1008L674 1059L678 1055Q693 1060 714 1062L752 1063Q962 1063 1098 910Q1229 762 1229
549Q1229 300 1059 135ZM842 606T780 665Q719 723 629 723Q542 723 483 666Q424 608 424 522Q424 434 482 373Q541 311 629 311Q717 311 779 369Q842 428 842 516Q842 606 780 665Z" />
<glyph unicode="7" glyph-name="seven" horiz-adv-x="1265" d="M588 0H162L721 1190H133V1516H1120V1219L588 0Z" />
<glyph unicode="8" glyph-name="eight" horiz-adv-x="1265" d="M1185 239T1012 100Q850 -29 634 -29Q417 -29 254 100Q79 239 79 451Q79 732 317 834Q169 946 169 1118Q169 1308 308 1429Q440 1544 632 1544Q822 1544 955 1430Q1095 1310 1095 1122Q1095 950 947
834Q1185 733 1185 451Q1185 239 1012 100ZM771 1231T634 1231Q493 1231 493 1092Q493 952 630 952Q771 952 771 1096Q771 1231 634 1231ZM798 657T632 657Q466 657 466 485Q466 311 638 311Q705 311 753 364Q798 415 798 483Q798 657 632 657Z" />
<glyph unicode="9" glyph-name="nine" horiz-adv-x="1265" d="M1232 862T1192 754Q1157 659 1087 555L710 0H261L595 459L591 463Q576 457 554 456Q546 455 535 455H517Q415 455 316 504Q40 640 40 969Q40 1219 209 1382Q377 1544 628 1544Q930 1544 1105 1346Q1232
1202 1232 975Q1232 862 1192 754ZM845 1084T785 1144Q725 1204 636 1204Q549 1204 489 1147Q427 1088 427 1001Q427 913 487 854Q547 795 636 795Q724 795 783 850Q845 908 845 995Q845 1084 785 1144Z" />
<glyph unicode=":" glyph-name="colon" horiz-adv-x="643" d="M145 788V1137H499V788H145ZM145 0V348H499V0H145Z" />
<glyph unicode=";" glyph-name="semicolon" horiz-adv-x="643" d="M145 788V1137H499V788H145ZM499 -82Q499 -184 447 -253Q389 -330 290 -330H145V-147L196 -148Q228 -148 248 -142Q305 -128 305 -70V0H145V348H499V-82Z" />
<glyph unicode="&lt;" glyph-name="less" horiz-adv-x="1228" d="M94 360V676L1134 1114V756L438 520V516L1134 281V-78L94 360Z" />
<glyph unicode="=" glyph-name="equal" horiz-adv-x="1228" d="M98 625V952H1130V625H98ZM98 84V412H1130V84H98Z" />
<glyph unicode="&gt;" glyph-name="greater" horiz-adv-x="1228" d="M94 -78V281L790 516V520L94 756V1114L1134 676V360L94 -78Z" />
<glyph unicode="?" glyph-name="question" horiz-adv-x="1212" d="M1128 998T1070 901Q1046 861 1010 820Q982 789 940 750L870 685Q831 648 808 621Q745 549 739 481H383Q384 576 439 665Q462 701 496 740Q521 768 560 807L625 871Q659 906 680 933Q735 1003
735 1067Q735 1194 616 1194Q532 1194 499 1133Q477 1091 475 997H100Q99 1006 98 1016V1034Q98 1260 255 1404Q408 1544 637 1544Q949 1544 1079 1298Q1128 1207 1128 1110Q1128 998 1070 901ZM383 0V348H739V0H383Z" />
<glyph unicode="@" glyph-name="at" horiz-adv-x="1531" d="M1522 763T1485 655Q1440 523 1350 432Q1246 326 1120 326Q971 326 920 473Q831 326 676 326Q535 326 445 439Q361 543 361 688Q361 862 472 1000Q591 1147 760 1147Q918 1147 963 1026H967L983 1122H1196L1111
624Q1106 593 1106 571Q1106 518 1161 518Q1214 518 1261 598Q1278 628 1293 666Q1305 697 1311 723Q1329 797 1329 874Q1329 1093 1175 1230Q1026 1362 805 1362Q551 1362 376 1179Q203 999 203 743Q203 628 244 518Q310 334 459 241Q600 154 803 154Q1032 154
1235 229L1278 41Q1171 3 1044 -16Q929 -33 803 -33Q540 -33 347 87Q144 211 51 449Q-6 595 -6 748Q-6 1085 226 1317Q459 1548 797 1548Q1099 1548 1306 1365Q1522 1174 1522 877Q1522 763 1485 655ZM922 954T787 954Q696 954 635 868Q580 791 580 696Q580 518
733 518Q827 518 879 611Q922 687 922 788Q922 954 787 954Z" />
<glyph unicode="A" glyph-name="A" horiz-adv-x="1552" d="M1114 0L1040 219H514L434 0H18L626 1516H931L1534 0H1114ZM782 1044H776L620 526H938L782 1044Z" />
<glyph unicode="B" glyph-name="B" horiz-adv-x="1325" d="M1253 249T1114 131Q1009 41 881 16Q828 5 757 2Q728 1 690 0H137V1516H604Q692 1516 738 1513Q811 1509 866 1496Q1002 1465 1089 1368Q1179 1269 1179 1118Q1179 912 1003 813Q1253 727 1253 461Q1253
249 1114 131ZM809 1127T763 1154Q727 1176 657 1176H508V940H655Q809 940 809 1061Q809 1127 763 1154ZM882 560T826 592Q782 616 702 616H508V340H700Q782 340 827 370Q882 407 882 485Q882 560 826 592Z" />
<glyph unicode="C" glyph-name="C" horiz-adv-x="1703" d="M1640 567Q1574 300 1361 135Q1150 -29 874 -29Q542 -29 309 199Q75 428 75 760Q75 1091 307 1319Q538 1544 870 1544Q1302 1544 1537 1188Q1619 1065 1640 940H1234Q1133 1204 868 1204Q689 1204 573
1071Q462 943 462 762Q462 579 573 449Q690 311 870 311Q1118 311 1234 567H1640Z" />
<glyph unicode="D" glyph-name="D" horiz-adv-x="1519" d="M1427 0T646 0H116V1516H618Q730 1516 814 1505Q912 1492 991 1463Q1168 1399 1287 1233Q1427 1039 1427 762Q1427 0 646 0ZM1040 947T952 1056Q856 1176 671 1176H503V340H669Q859 340 953 456Q1040
562 1040 756Q1040 947 952 1056Z" />
<glyph unicode="E" glyph-name="E" horiz-adv-x="1081" d="M137 0V1516H979V1176H508V940H964V600H508V340H979V0H137Z" />
<glyph unicode="F" glyph-name="F" horiz-adv-x="1036" d="M508 1176V918H948V578H508V0H137V1516H964V1176H508Z" />
<glyph unicode="G" glyph-name="G" horiz-adv-x="1748" d="M1685 782Q1685 433 1455 201Q1224 -31 876 -31Q540 -31 306 198Q71 429 71 764Q71 1100 310 1325Q544 1544 882 1544Q1134 1544 1349 1397Q1572 1245 1640 1008H1206Q1096 1204 872 1204Q690 1204 572
1074Q458 948 458 764Q458 572 569 444Q686 309 874 309Q1005 309 1100 368Q1202 432 1236 553H784V862H1683Q1684 844 1685 822V782Z" />
<glyph unicode="H" glyph-name="H" horiz-adv-x="1544" d="M1020 0V606H524V0H137V1516H524V946H1020V1516H1407V0H1020Z" />
<glyph unicode="I" glyph-name="I" horiz-adv-x="661" d="M137 0V1516H524V0H137Z" />
<glyph unicode="J" glyph-name="J" horiz-adv-x="1183" d="M1044 600Q1044 526 1043 488Q1040 425 1032 375Q1012 249 950 170Q790 -29 522 -29Q412 -29 317 8Q162 64 84 194Q12 314 12 487H424Q428 411 447 371Q475 311 540 311Q614 311 640 376Q657 417 657
504V1516H1044V600Z" />
<glyph unicode="K" glyph-name="K" horiz-adv-x="1447" d="M983 0L569 655H565V0H178V1516H565V834H569L997 1516H1403L901 760L1435 0H983Z" />
<glyph unicode="L" glyph-name="L" horiz-adv-x="997" d="M147 0V1516H534V340H983V0H147Z" />
<glyph unicode="M" glyph-name="M" horiz-adv-x="1873" d="M1380 0L1392 1135L1388 1139L1065 0H809L485 1139L481 1135L493 0H137V1516H635L936 518H940L1237 1516H1736V0H1380Z" />
<glyph unicode="N" glyph-name="N" horiz-adv-x="1554" d="M1079 0L502 922L497 920L508 0H137V1516H471L1057 563L1061 567L1044 1516H1415V0H1079Z" />
<glyph unicode="O" glyph-name="O" horiz-adv-x="1742" d="M1670 424T1436 196Q1203 -29 868 -29Q542 -29 309 192Q71 416 71 739Q71 911 130 1063Q161 1144 229 1233Q465 1544 870 1544Q1204 1544 1436 1318Q1670 1091 1670 758Q1670 424 1436 196ZM1283 939T1171
1068Q1052 1204 872 1204Q690 1204 572 1072Q458 945 458 762Q458 575 573 446Q692 311 876 311Q1053 311 1171 447Q1283 576 1283 756Q1283 939 1171 1068Z" />
<glyph unicode="P" glyph-name="P" horiz-adv-x="1302" d="M1278 893T1238 788Q1194 674 1118 606Q1027 527 911 498Q822 475 676 475H508V0H137V1516H633Q705 1516 754 1513Q822 1509 878 1499Q1016 1475 1100 1405Q1278 1254 1278 1004Q1278 893 1238 788ZM907
1104T827 1146Q769 1176 651 1176H508V815H665Q777 815 834 849Q907 892 907 997Q907 1104 827 1146Z" />
<glyph unicode="Q" glyph-name="Q" horiz-adv-x="1773" d="M1750 -27Q1685 -31 1654 -31Q1552 -31 1464 -5Q1357 26 1298 88Q1107 -31 872 -31Q543 -31 309 194Q71 422 71 750Q71 1083 303 1314Q534 1544 868 1544Q1197 1544 1434 1323Q1677 1097 1677 770Q1677
518 1552 332Q1628 262 1750 281V-27ZM1290 960T1172 1082Q1053 1204 870 1204Q704 1204 593 1093Q489 990 460 821Q523 848 565 858Q618 872 675 872Q834 872 991 776Q1124 693 1238 553Q1290 642 1290 776Q1290 960 1172 1082ZM996 405T959 442Q913 489 867 519Q762
590 634 590Q570 590 499 565Q607 309 868 309Q972 309 1044 348Q996 405 959 442Z" />
<glyph unicode="R" glyph-name="R" horiz-adv-x="1337" d="M862 0L512 489H508V0H137V1516H616Q692 1516 738 1513Q806 1510 860 1500Q996 1477 1083 1407Q1270 1257 1270 993Q1270 812 1171 682Q1068 544 893 516L1304 0H862ZM899 1076T824 1129Q759 1176 649
1176H508V754H645Q899 754 899 971Q899 1076 824 1129Z" />
<glyph unicode="S" glyph-name="S" horiz-adv-x="1173" d="M1126 208T974 85Q834 -29 598 -29Q357 -29 210 91Q51 219 51 453V502H436Q436 418 473 361Q515 295 594 295Q741 295 741 440Q741 506 690 547Q670 563 638 579L609 593L444 664Q362 698 303 733Q233
774 185 822Q74 935 74 1098Q74 1299 242 1427Q396 1544 604 1544Q721 1544 828 1502Q944 1456 1014 1372Q1108 1256 1114 1073H731Q709 1221 592 1221Q459 1221 459 1102Q459 1060 473 1038Q496 999 612 942L772 870Q856 832 912 797Q980 755 1024 708Q1126 600
1126 436Q1126 208 974 85Z" />
<glyph unicode="T" glyph-name="T" horiz-adv-x="1021" d="M706 1176V0H319V1176H20V1516H1003V1176H706Z" />
<glyph unicode="U" glyph-name="U" horiz-adv-x="1429" d="M1296 600Q1296 445 1270 349Q1235 226 1145 135Q984 -29 721 -29Q593 -29 485 8Q363 50 285 133Q189 234 157 349Q143 401 137 466Q133 518 133 600V1516H520V600Q520 540 526 497Q534 442 553 404Q599
311 717 311Q839 311 881 402Q898 439 905 494Q909 534 909 600V1516H1296V600Z" />
<glyph unicode="V" glyph-name="V" horiz-adv-x="1478" d="M937 0H538L32 1516H429L734 453H739L1046 1516H1445L937 0Z" />
<glyph unicode="W" glyph-name="W" horiz-adv-x="2009" d="M1572 0H1232L1005 981H1001L773 0H423L32 1516H425L628 530H632L855 1516H1152L1371 526H1375L1582 1516H1974L1572 0Z" />
<glyph unicode="X" glyph-name="X" horiz-adv-x="1554" d="M1093 0L765 537L454 0H22L552 807L83 1516H522L782 1083L1034 1516H1470L1007 799L1531 0H1093Z" />
<glyph unicode="Y" glyph-name="Y" horiz-adv-x="1325" d="M858 551V0H471V551L18 1516H438L663 907L890 1516H1306L858 551Z" />
<glyph unicode="Z" glyph-name="Z" horiz-adv-x="1021" d="M32 0V254L554 1176H32V1516H988V1202L505 340H988V0H32Z" />
<glyph unicode="[" glyph-name="bracketleft" horiz-adv-x="968" d="M820 -541Q596 -528 439 -418Q311 -327 257 -187Q212 -70 212 104V899Q212 1074 257 1190Q311 1328 439 1421Q524 1482 621 1512Q706 1538 820 1544V1188Q693 1182 641 1107Q597 1044 597 913V90Q597
-41 641 -104Q693 -179 820 -184V-541Z" />
<glyph unicode="\" glyph-name="backslash" horiz-adv-x="1214" d="M688 -205L147 1516H524L1067 -205H688Z" />
<glyph unicode="]" glyph-name="bracketright" horiz-adv-x="968" d="M755 104Q755 -70 710 -187Q656 -324 528 -418Q443 -479 346 -508Q261 -534 147 -541V-184Q274 -179 326 -104Q370 -41 370 90V913Q370 1044 326 1107Q274 1182 147 1188V1544Q371 1531 528
1421Q656 1331 710 1191Q755 1074 755 899V104Z" />
<glyph unicode="^" glyph-name="asciicircum" horiz-adv-x="1228" d="M772 768L616 1225H612L455 768H88L444 1516H784L1141 768H772Z" />
<glyph unicode="_" glyph-name="underscore" horiz-adv-x="1024" d="M0 -256V-154H1024V-256H0Z" />
<glyph unicode="`" glyph-name="grave" horiz-adv-x="643" d="M143 838V1268Q143 1370 195 1439Q253 1516 352 1516H499V1333L448 1334Q417 1333 396 1328Q340 1314 340 1255V1186H499V838H143Z" />
<glyph unicode="a" glyph-name="a" horiz-adv-x="1441" d="M976 0V123H972Q929 41 829 -2Q743 -39 640 -39Q383 -39 223 138Q69 310 69 569Q69 824 226 997Q389 1176 640 1176Q742 1176 828 1138Q924 1096 972 1016H976V1137H1316V0H976ZM976 694T895 776Q814
858 690 858Q567 858 487 772Q409 689 409 565Q409 446 490 363Q573 279 692 279Q815 279 896 362Q976 445 976 569Q976 694 895 776Z" />
<glyph unicode="b" glyph-name="b" horiz-adv-x="1419" d="M1351 312T1197 140Q1037 -39 777 -39Q680 -39 593 -1Q493 43 452 121H448V0H122V1516H462V1047Q583 1176 792 1176Q911 1176 1031 1120Q1191 1046 1273 898Q1351 759 1351 575Q1351 312 1197 140ZM1011
688T931 772Q850 858 732 858Q612 858 530 775Q450 692 450 571Q450 448 526 364Q604 279 726 279Q848 279 930 363Q1011 447 1011 569Q1011 688 931 772Z" />
<glyph unicode="c" glyph-name="c" horiz-adv-x="1335" d="M1271 432Q1222 224 1056 93Q891 -37 675 -37Q420 -37 244 140Q67 316 67 571Q67 824 240 999Q414 1176 667 1176Q888 1176 1055 1045Q1225 913 1269 698H925Q851 858 671 858Q552 858 479 771Q409 689
409 569Q409 446 482 365Q558 281 679 281Q846 281 925 432H1271Z" />
<glyph unicode="d" glyph-name="d" horiz-adv-x="1429" d="M982 0V123H978Q928 38 831 -2Q749 -37 638 -37Q383 -37 223 141Q69 313 69 571Q69 825 222 997Q382 1176 632 1176Q834 1176 966 1040V1516H1306V0H982ZM984 696T903 777Q821 858 698 858Q574 858 492
778Q409 697 409 573Q409 447 488 365Q568 281 694 281Q821 281 903 364Q984 447 984 573Q984 696 903 777Z" />
<glyph unicode="e" glyph-name="e" horiz-adv-x="1323" d="M1257 506T1249 465H397Q429 250 663 250Q785 250 870 356H1218Q1142 179 1000 74Q849 -37 663 -37Q414 -37 238 140Q61 316 61 565Q61 815 234 994Q409 1176 657 1176Q915 1176 1088 994Q1257 815 1257
555Q1257 506 1249 465ZM917 694Q875 889 659 889Q443 889 401 694H917Z" />
<glyph unicode="f" glyph-name="f" horiz-adv-x="643" d="M475 879V0H135V879H8V1137H135V1196Q135 1389 263 1474Q369 1544 569 1544H618V1288Q527 1288 501 1260Q475 1233 475 1137H618V879H475Z" />
<glyph unicode="g" glyph-name="g" horiz-adv-x="1419" d="M1300 89Q1299 63 1299 41Q1296 -13 1291 -56Q1276 -162 1232 -238Q1153 -371 980 -443Q829 -506 657 -506Q501 -506 378 -456Q239 -399 159 -283Q101 -199 89 -106H483Q533 -219 681 -219Q958 -219 958
90V125H954Q911 46 821 3Q739 -37 642 -37Q391 -37 228 138Q69 308 69 561Q69 818 226 993Q389 1174 642 1174Q739 1174 818 1141Q910 1103 956 1030H960V1137H1300V89ZM960 689T885 771Q807 856 683 856Q567 856 487 772Q409 690 409 573Q409 452 484 368Q561
281 681 281Q804 281 882 360Q960 440 960 563Q960 689 885 771Z" />
<glyph unicode="h" glyph-name="h" horiz-adv-x="1294" d="M835 0V618Q835 725 799 783Q754 856 652 856Q549 856 502 792Q462 737 462 631V0H122V1516H462V1032H466Q508 1107 592 1144Q664 1176 759 1176Q961 1176 1068 1051Q1141 967 1162 854Q1171 809 1173
748Q1174 724 1175 692V0H835Z" />
<glyph unicode="i" glyph-name="i" horiz-adv-x="585" d="M122 1257V1516H462V1257H122ZM122 0V1137H462V0H122Z" />
<glyph unicode="j" glyph-name="j" horiz-adv-x="657" d="M178 1257V1516H518V1257H178ZM518 25Q518 -218 431 -314Q338 -418 96 -418H12V-160H57Q134 -160 160 -108Q178 -73 178 12V1137H518V25Z" />
<glyph unicode="k" glyph-name="k" horiz-adv-x="1210" d="M770 637L1186 0H801L479 547H475V0H135V1516H475V725H479L794 1137H1198L770 637Z" />
<glyph unicode="l" glyph-name="l" horiz-adv-x="585" d="M122 0V1516H462V0H122Z" />
<glyph unicode="m" glyph-name="m" horiz-adv-x="1984" d="M1527 0V604Q1527 721 1499 777Q1459 856 1353 856Q1248 856 1202 787Q1164 730 1164 621V0H824V618Q824 724 793 781Q752 856 654 856Q546 856 499 780Q462 720 462 604V0H122V1137H439V1016H444Q490
1099 576 1139Q653 1176 757 1176Q975 1176 1085 973Q1213 1176 1445 1176Q1632 1176 1744 1061Q1830 973 1854 857Q1863 809 1866 744Q1867 719 1867 684V0H1527Z" />
<glyph unicode="n" glyph-name="n" horiz-adv-x="1294" d="M835 0V621Q835 732 803 786Q762 856 657 856Q546 856 500 788Q462 732 462 618V0H122V1137H439V1016H444Q542 1176 753 1176Q926 1176 1044 1077Q1118 1015 1150 910Q1175 828 1175 711V0H835Z" />
<glyph unicode="o" glyph-name="o" horiz-adv-x="1363" d="M1294 309T1118 137Q943 -35 681 -35Q419 -35 245 137Q69 309 69 569Q69 830 245 1002Q419 1174 681 1174Q943 1174 1118 1002Q1294 830 1294 569Q1294 309 1118 137ZM954 687T877 770Q798 856 681 856Q565
856 486 770Q409 687 409 569Q409 452 486 368Q565 283 681 283Q798 283 877 368Q954 452 954 569Q954 687 877 770Z" />
<glyph unicode="p" glyph-name="p" horiz-adv-x="1427" d="M1357 312T1205 140Q1046 -39 804 -39Q592 -39 462 102V-379H122V1137H441V1012H448Q578 1176 802 1176Q1057 1176 1212 990Q1357 816 1357 557Q1357 312 1205 140ZM1017 690T936 773Q854 858 732 858Q610
858 529 773Q448 690 448 567Q448 447 529 363Q612 279 732 279Q853 279 935 363Q1017 447 1017 567Q1017 690 936 773Z" />
<glyph unicode="q" glyph-name="q" horiz-adv-x="1429" d="M966 -379V117H962Q904 35 810 -3Q727 -37 618 -37Q377 -37 221 136Q69 303 69 547Q69 812 220 989Q380 1176 640 1176Q745 1176 831 1137Q928 1094 976 1012H980V1137H1306V-379H966ZM978 691T897 774Q815
858 692 858Q567 858 487 771Q409 687 409 561Q409 443 493 362Q577 281 696 281Q814 281 896 365Q978 449 978 567Q978 691 897 774Z" />
<glyph unicode="r" glyph-name="r" horiz-adv-x="743" d="M728 834Q597 830 538 794Q460 746 460 625V0H120V1137H439V1016H444Q525 1176 728 1176V834Z" />
<glyph unicode="s" glyph-name="s" horiz-adv-x="1021" d="M975 167T830 59Q699 -39 512 -39Q326 -39 201 56Q68 157 49 338H387Q402 233 516 233Q560 233 595 255Q635 280 635 322Q635 375 581 409L531 433L334 504Q215 547 148 611Q63 691 63 801Q63 970 201
1077Q328 1176 504 1176Q683 1176 799 1087Q924 992 940 817H606Q603 903 500 903Q403 903 403 827Q403 770 493 734Q523 721 584 703Q589 702 597 700L689 671Q750 651 794 629Q848 602 885 567Q975 484 975 348Q975 167 830 59Z" />
<glyph unicode="t" glyph-name="t" horiz-adv-x="718" d="M530 879V0H190V879H22V1137H190V1516H530V1137H694V879H530Z" />
<glyph unicode="u" glyph-name="u" horiz-adv-x="1298" d="M853 0V121H849Q807 34 727 -4Q658 -37 554 -37Q337 -37 220 106Q156 186 135 272Q118 337 118 457V1137H458V508Q458 398 492 346Q534 281 640 281Q835 281 835 512V1137H1175V0H853Z" />
<glyph unicode="v" glyph-name="v" horiz-adv-x="1212" d="M767 0H442L34 1137H386L603 428H607L825 1137H1177L767 0Z" />
<glyph unicode="w" glyph-name="w" horiz-adv-x="1740" d="M1378 0H1063L872 735H868L678 0H362L14 1137H366L536 430H540L727 1137H1013L1202 430H1206L1376 1137H1726L1378 0Z" />
<glyph unicode="x" glyph-name="x" horiz-adv-x="1290" d="M870 0L643 352L412 0H2L434 608L51 1137H459L643 838L825 1137H1229L846 608L1286 0H870Z" />
<glyph unicode="y" glyph-name="y" horiz-adv-x="1175" d="M604 -379H244L424 57L2 1137H364L592 477H596L813 1137H1173L604 -379Z" />
<glyph unicode="z" glyph-name="z" horiz-adv-x="909" d="M30 0V233L509 879H30V1137H876V879L431 258H876V0H30Z" />
<glyph unicode="{" glyph-name="braceleft" horiz-adv-x="1134" d="M727 -541Q591 -541 505 -468Q414 -392 414 -258V176Q414 244 344 276Q292 301 215 301V653Q293 653 347 683Q414 719 414 791V1233Q414 1366 505 1443Q591 1516 727 1516H989V1257L901 1259Q854
1259 827 1250Q758 1228 758 1124V696Q758 498 537 481V473Q628 468 689 423Q758 372 758 285V-150Q758 -253 827 -275Q854 -284 901 -284L989 -283V-541H727Z" />
<glyph unicode="|" glyph-name="bar" horiz-adv-x="1136" d="M380 -205V1516H755V-205H380Z" />
<glyph unicode="}" glyph-name="braceright" horiz-adv-x="1134" d="M919 301Q843 301 790 276Q720 244 720 176V-258Q720 -392 629 -468Q543 -541 407 -541H145V-283L233 -284Q280 -284 307 -275Q376 -253 376 -150V285Q376 372 446 423Q506 468 598 473V481Q376
498 376 696V1124Q376 1228 307 1250Q280 1259 233 1259L145 1257V1516H407Q543 1516 629 1443Q720 1366 720 1233V791Q720 719 788 683Q841 653 919 653V301Z" />
<glyph unicode="~" glyph-name="asciitilde" horiz-adv-x="1228" d="M1091 449Q1083 437 1079 432L1040 382Q1010 347 983 325Q915 268 831 268Q777 268 719 290Q696 299 668 312L618 338Q553 372 513 386Q450 408 387 408Q327 408 280 363Q245 330 211 266L137
586Q185 672 241 716Q308 768 397 768Q448 768 514 746Q558 732 631 698L688 673Q719 659 741 650Q798 629 833 629Q888 629 940 677Q960 696 982 724L1018 772L1091 449Z" />
</font>
</defs>
</svg>
