<svg xmlns="http://www.w3.org/2000/svg">
<defs>
<font horiz-adv-x="994" ><font-face
    font-family="UTM Avo"
    units-per-em="2048"
    panose-1="2 4 6 3 5 5 6 2 2 4"
    ascent="2343"
    descent="-455"
    alphabetic="0" />
<missing-glyph horiz-adv-x="5040" d="M3351 2045H3361Q3398 2035 3398 1993Q3398 1981 3366 1936H3338Q3338 1960 3366 1990L3368 2000Q3363 2013 3358 2015H3349Q3341 2015 3339 1996H3309Q3315 2045 3351 2045ZM2019 2016L2048 1985Q2048 1969 2008 1955H1989L1930
1967L1919 1955L1891 1980Q1902 2009 1934 2009H1945L1987 1998H1989Q1999 1998 2019 2016ZM468 1980H610V1920H516V1845H605V1786H516V1657L511 1652H462V1975L468 1980ZM1155 1980H1198L1204 1975V1897H1234V1845H1204V1657L1198 1652H1149V1845H1124V1897H1149V1975L1155
1980ZM1621 1980H1663L1667 1975V1881H1670Q1693 1905 1724 1905H1726Q1784 1905 1809 1834L1811 1795V1652H1759V1767Q1759 1847 1717 1847H1710Q1667 1847 1667 1761V1652H1616V1975L1621 1980ZM2200 1980H2249L2254 1975V1753Q2264 1702 2299 1702Q2343 1709
2343 1761V1975L2348 1980H2397V1764Q2397 1679 2331 1652Q2316 1644 2296 1644Q2249 1644 2214 1699Q2200 1723 2200 1756V1980ZM2435 1980H2594V1920H2538V1652H2485V1920H2430V1975L2435 1980ZM2621 1980H2692Q2699 1976 2775 1729H2777L2857 1980H2930V1652H2876V1894H2874L2800
1652H2756Q2752 1652 2698 1834L2679 1894H2676V1652H2621V1980ZM3760 1980H3812V1652H3767L3762 1657V1668L3765 1670L3762 1684Q3733 1644 3684 1644Q3617 1644 3584 1735L3579 1774V1777Q3579 1871 3671 1902L3694 1905Q3729 1905 3757 1873H3760V1980ZM2057
1928H2093L2097 1922V1873H2052V1652H2004V1675Q1981 1644 1945 1644Q1856 1658 1856 1741V1897H1907V1793Q1907 1714 1933 1707L1951 1702H1957Q1983 1702 1996 1738L1999 1764V1897H2052V1922L2057 1928ZM3476 1928V1873H3445V1652H3398V1677H3396Q3381 1644
3339 1644Q3271 1644 3253 1722L3250 1751V1897H3302V1777Q3302 1727 3321 1709L3342 1702H3351Q3393 1702 3393 1771V1897H3420Q3424 1897 3424 1925L3427 1928H3476ZM758 1905Q826 1905 861 1828Q870 1810 873 1774Q873 1686 783 1647L751 1644Q688 1644 650

<glyph unicode=" " glyph-name="space" horiz-adv-x="567" />
<glyph unicode="!" glyph-name="exclam" horiz-adv-x="604" d="M227 395V1516H379V395H227ZM227 0V258H379V0H227Z" />
<glyph unicode="&quot;" glyph-name="quotedbl" horiz-adv-x="632" d="M534 909H417L392 1516H558L534 909ZM214 909H98L73 1516H239L214 909Z" />
<glyph unicode="#" glyph-name="numbersign" horiz-adv-x="1134" d="M876 956L821 559H1009V422H802L743 0H602L661 422H407L348 0H206L266 422H67V559H286L339 954H120V1094H360L419 1516H561L501 1094H755L815 1516H956L896 1094H1066V956H876ZM483 956L427
559H679L735 956H483Z" />
<glyph unicode="$" glyph-name="dollar" horiz-adv-x="1134" d="M993 303T896 190Q797 75 645 59V-143H493V59Q350 75 247 184Q143 295 143 438V467H295Q295 184 575 184Q841 184 841 457Q841 583 756 655Q691 709 555 743Q468 765 408 791Q338 821 292 861Q187
952 186 1118V1126Q183 1434 493 1489V1661H645V1495Q965 1451 979 1114H827Q827 1362 571 1362Q338 1362 338 1126Q338 1010 418 951Q451 926 503 907Q539 893 604 877Q786 828 880 740Q993 633 993 457Q993 303 896 190Z" />
<glyph unicode="%" glyph-name="percent" horiz-adv-x="1587" d="M784 1020T675 912Q566 805 414 805Q261 805 152 912Q43 1020 43 1171Q43 1323 152 1431Q261 1538 414 1538Q566 1538 675 1431Q784 1323 784 1171Q784 1020 675 912ZM422 0H283L1151 1516H1290L422
0ZM1542 188T1433 81Q1324 -27 1171 -27Q1019 -27 910 81Q801 188 801 340Q801 492 910 599Q1019 707 1171 707Q1324 707 1433 599Q1542 492 1542 340Q1542 188 1433 81ZM661 1276T590 1350Q518 1423 414 1423Q310 1423 238 1350Q166 1276 166 1171Q166 1067 238
993Q310 920 414 920Q518 920 590 993Q661 1067 661 1171Q661 1276 590 1350ZM1419 445T1348 518Q1276 592 1171 592Q1067 592 995 518Q924 445 924 340Q924 235 995 162Q1067 88 1171 88Q1276 88 1348 162Q1419 235 1419 340Q1419 445 1348 518Z" />
<glyph unicode="&amp;" glyph-name="ampersand" horiz-adv-x="1550" d="M1398 -25L1052 313Q969 154 871 74Q751 -25 591 -25Q397 -25 257 109Q114 245 114 438Q114 597 217 717Q304 817 464 889Q381 970 345 1030Q294 1113 294 1206Q294 1350 406 1448Q513 1542
659 1542Q805 1542 912 1439Q1021 1334 1021 1188Q1021 1068 930 971Q849 886 726 844L1013 561L1234 987H1404L1124 453L1507 80L1398 -25ZM870 1289T805 1345Q744 1399 657 1399Q574 1399 511 1346Q446 1290 446 1208Q446 1139 504 1064Q527 1035 560 1003Q583
981 618 950Q674 972 707 988Q756 1011 788 1037Q870 1102 870 1202Q870 1289 805 1345ZM573 780Q445 736 362 650Q266 552 266 430Q266 304 359 211Q453 119 579 119Q705 119 800 215Q839 254 876 312Q903 355 937 422L573 780Z" />
<glyph unicode="&apos;" glyph-name="quotesingle" horiz-adv-x="718" d="M344 1118H192L372 1516H524L344 1118Z" />
<glyph unicode="(" glyph-name="parenleft" horiz-adv-x="755" d="M727 -420Q601 -379 471 -266Q96 63 96 565Q96 1068 471 1397Q601 1509 727 1550V1397Q515 1270 382 1042Q248 811 248 565Q248 316 380 86Q511 -141 727 -272V-420Z" />
<glyph unicode=")" glyph-name="parenright" horiz-adv-x="755" d="M659 63T284 -266Q154 -379 28 -420V-272Q243 -141 374 86Q507 316 507 565Q507 811 373 1042Q240 1270 28 1397V1550Q154 1509 284 1397Q659 1068 659 565Q659 63 284 -266Z" />
<glyph unicode="*" glyph-name="asterisk" horiz-adv-x="870" d="M526 1171L665 983L569 913L431 1106L296 915L200 985L341 1174L118 1243L155 1358L378 1280L376 1516H495L491 1278L714 1354L751 1241L526 1171Z" />
<glyph unicode="+" glyph-name="plus" horiz-adv-x="1241" d="M690 449V0H550V449H104V588H550V1036H690V588H1136V449H690Z" />
<glyph unicode="," glyph-name="comma" horiz-adv-x="567" d="M180 -137H28L208 258H360L180 -137Z" />
<glyph unicode="-" glyph-name="hyphen" horiz-adv-x="679" d="M61 508V645H618V508H61Z" />
<glyph unicode="." glyph-name="period" horiz-adv-x="567" d="M208 0V258H360V0H208Z" />
<glyph unicode="/" glyph-name="slash" horiz-adv-x="894" d="M246 -205H90L663 1516H825L246 -205Z" />
<glyph unicode="0" glyph-name="zero" horiz-adv-x="1134" d="M1075 553Q1075 459 1058 376Q1039 279 999 209Q860 -27 567 -27Q274 -27 135 209Q95 279 75 376Q59 459 59 553V995Q59 1162 116 1274Q252 1542 567 1542Q882 1542 1017 1274Q1075 1162 1075 995V553ZM923
961Q923 1035 908 1110Q890 1197 858 1249Q760 1405 567 1405Q374 1405 276 1249Q243 1197 226 1110Q211 1035 211 961V575Q211 490 222 419Q236 325 268 272Q366 111 567 111Q768 111 866 272Q898 325 912 419Q923 490 923 575V961Z" />
<glyph unicode="1" glyph-name="one" horiz-adv-x="1134" d="M536 0V1378H276V1516H688V0H536Z" />
<glyph unicode="2" glyph-name="two" horiz-adv-x="1134" d="M1052 942T965 814Q930 762 876 704Q839 664 773 602L286 137H1044V0H81V137L708 740Q765 796 801 842Q900 966 900 1083Q900 1216 802 1311Q706 1405 573 1405Q415 1405 327 1292Q245 1189 245 1026H93V1030Q93
1199 163 1318Q239 1448 388 1505Q480 1542 581 1542Q893 1542 1015 1253Q1052 1166 1052 1081Q1052 942 965 814Z" />
<glyph unicode="3" glyph-name="three" horiz-adv-x="1134" d="M1036 260T901 118Q764 -27 558 -27Q464 -27 378 8Q228 65 149 191Q75 308 69 475H221Q226 408 235 370Q247 317 274 272Q371 111 558 111Q706 111 797 212Q884 309 884 459Q884 573 810 664Q738
754 626 782Q590 791 538 794L450 797V930L501 928Q621 928 699 986Q784 1050 784 1165Q784 1269 718 1337Q652 1405 548 1405Q442 1405 379 1321Q321 1246 321 1137H169Q174 1310 276 1423Q382 1542 552 1542Q717 1542 827 1430Q935 1318 935 1153Q935 1061 894
991Q858 930 780 868Q1036 733 1036 467Q1036 260 901 118Z" />
<glyph unicode="4" glyph-name="four" horiz-adv-x="1134" d="M943 276V0H792V276H28V414L763 1516H943V414H1081V276H943ZM792 1307H788L202 414H792V1307Z" />
<glyph unicode="5" glyph-name="five" horiz-adv-x="1134" d="M1085 285T937 130Q787 -27 571 -27Q483 -27 395 6Q244 61 156 189Q76 307 53 477H205Q221 322 317 219Q420 111 571 111Q725 111 831 230Q934 345 934 502Q934 661 835 776Q731 897 573 897Q390 897
258 725L139 768L276 1516H958V1378H397L321 961Q452 1032 579 1032Q796 1032 942 874Q1085 720 1085 502Q1085 285 937 130Z" />
<glyph unicode="6" glyph-name="six" horiz-adv-x="1134" d="M1085 281T938 128Q790 -27 567 -27Q338 -27 192 129Q49 281 49 512Q49 628 105 747Q127 795 163 853Q185 888 231 956L608 1513H780L430 999L434 997Q503 1030 575 1030Q794 1030 941 876Q1085 724
1085 504Q1085 281 938 128ZM934 662T832 776Q726 893 567 893Q407 893 302 774Q201 659 201 498Q201 339 304 227Q410 111 567 111Q728 111 833 227Q934 339 934 502Q934 662 832 776Z" />
<glyph unicode="7" glyph-name="seven" horiz-adv-x="1134" d="M385 0H225L850 1378H129V1516H1006V1378L385 0Z" />
<glyph unicode="8" glyph-name="eight" horiz-adv-x="1134" d="M1050 246T906 109Q764 -27 568 -27Q372 -27 229 108Q83 245 83 440Q83 571 153 683Q226 799 343 846Q165 961 165 1149Q165 1317 282 1430Q398 1542 566 1542Q735 1542 852 1427Q968 1312 968 1143Q968
945 788 846Q1050 721 1050 440Q1050 246 906 109ZM816 1257T745 1331Q673 1405 570 1405Q464 1405 390 1333Q316 1261 316 1155Q316 1055 393 982Q468 909 568 909Q670 909 743 981Q816 1053 816 1155Q816 1257 745 1331ZM898 578T800 673Q702 768 564 768Q433
768 334 673Q235 577 235 446Q235 302 330 206Q426 111 570 111Q707 111 803 208Q898 305 898 440Q898 578 800 673Z" />
<glyph unicode="9" glyph-name="nine" horiz-adv-x="1134" d="M1085 885T1029 766Q1007 718 971 661Q949 625 903 557L526 0H354L704 514L700 516Q638 483 559 483Q340 483 193 637Q49 789 49 1010Q49 1233 196 1385Q345 1540 567 1540Q796 1540 942 1384Q1085
1232 1085 1001Q1085 885 1029 766ZM934 1174T830 1287Q724 1403 567 1403Q406 1403 302 1286Q201 1174 201 1012Q201 851 302 738Q408 621 567 621Q727 621 833 740Q934 854 934 1016Q934 1174 830 1287Z" />
<glyph unicode=":" glyph-name="colon" horiz-adv-x="567" d="M208 864V1122H360V864H208ZM208 0V258H360V0H208Z" />
<glyph unicode=";" glyph-name="semicolon" horiz-adv-x="567" d="M208 864V1122H360V864H208ZM180 -137H28L208 258H360L180 -137Z" />
<glyph unicode="&lt;" glyph-name="less" horiz-adv-x="1241" d="M94 455V582L1134 1053V913L264 518L1134 123V-16L94 455Z" />
<glyph unicode="=" glyph-name="equal" horiz-adv-x="1241" d="M104 655V795H1136V655H104ZM104 242V381H1136V242H104Z" />
<glyph unicode="&gt;" glyph-name="greater" horiz-adv-x="1241" d="M106 -16V123L976 518L106 913V1053L1146 582V455L106 -16Z" />
<glyph unicode="?" glyph-name="question" horiz-adv-x="1210" d="M1077 977T1019 887Q996 850 959 810L925 775L820 671Q782 630 757 594Q696 503 690 395H539V403Q539 527 599 629Q624 671 661 714Q688 746 732 788L803 857Q842 896 865 927Q926 1007 926 1092Q926
1219 829 1309Q734 1397 606 1397Q430 1397 330 1247Q299 1201 289 1148Q283 1111 283 1040H131V1079Q131 1271 276 1407Q419 1540 612 1540Q809 1540 942 1411Q1077 1281 1077 1085Q1077 977 1019 887ZM539 0V258H690V0H539Z" />
<glyph unicode="@" glyph-name="at" horiz-adv-x="1775" d="M1644 761T1618 670Q1580 533 1498 436Q1399 319 1274 319Q1117 319 1110 483H1106Q1005 319 823 319Q675 319 586 432Q504 536 504 688Q504 869 611 1005Q727 1151 903 1151Q1102 1151 1157 969H1161L1190
1122H1313L1215 578Q1208 542 1208 518Q1208 434 1278 434Q1364 434 1431 532Q1481 608 1505 711Q1522 793 1522 866Q1522 1126 1352 1280Q1188 1427 926 1427Q635 1427 446 1237Q256 1046 256 756Q256 447 448 266Q636 88 948 88Q1210 88 1436 190L1466 86Q1226
-27 948 -27Q691 -27 502 78Q296 191 199 414Q133 563 133 741Q133 1093 362 1318Q589 1542 942 1542Q1250 1542 1444 1360Q1644 1174 1644 868Q1644 761 1618 670ZM1116 902T1063 967Q1006 1036 913 1036Q783 1036 701 926Q627 827 627 692Q627 579 680 510Q739
434 848 434Q977 434 1053 561Q1116 667 1116 807Q1116 902 1063 967Z" />
<glyph unicode="A" glyph-name="A" horiz-adv-x="1515" d="M1327 0L1107 510H403L182 0H24L671 1516H841L1492 0H1327ZM757 1343L460 647H1048L757 1343Z" />
<glyph unicode="B" glyph-name="B" horiz-adv-x="1175" d="M1114 194T939 84Q856 32 761 14Q690 0 569 0H151V1516H532Q694 1516 807 1463Q941 1401 997 1268Q1028 1194 1028 1112Q1028 1013 984 938Q946 873 862 807Q1114 704 1114 434Q1114 194 939 84ZM876
1212T813 1284Q763 1342 670 1363Q633 1372 587 1376Q552 1378 505 1378H303V862L560 863Q597 864 626 868Q700 877 753 905Q876 970 876 1118Q876 1212 813 1284ZM962 617T784 690Q723 714 639 721Q606 724 564 725H303V137L588 138L661 142Q742 150 802 176Q962
243 962 434Q962 617 784 690Z" />
<glyph unicode="C" glyph-name="C" horiz-adv-x="1665" d="M1579 397Q1348 -27 881 -27Q553 -27 321 200Q88 429 88 756Q88 1087 318 1314Q547 1540 879 1540Q1238 1540 1477 1270Q1543 1196 1573 1126H1403Q1217 1403 876 1403Q617 1403 427 1207Q240 1014 240
754Q240 498 431 305Q623 111 879 111Q1038 111 1178 189Q1308 263 1409 397H1579Z" />
<glyph unicode="D" glyph-name="D" horiz-adv-x="1523" d="M1431 349T1087 125Q990 63 849 29Q723 0 593 0H151V1516H593Q724 1516 849 1486Q989 1453 1087 1391Q1431 1171 1431 754Q1431 349 1087 125ZM1279 1084T1021 1262Q920 1333 782 1359Q724 1370 654 1375Q598
1378 522 1378H303V137H554Q630 137 685 141Q753 146 809 158Q939 186 1042 260Q1155 342 1219 482Q1279 614 1279 760Q1279 1084 1021 1262Z" />
<glyph unicode="E" glyph-name="E" horiz-adv-x="1097" d="M143 0V1516H972V1378H295V834H950V696H295V137H972V0H143Z" />
<glyph unicode="F" glyph-name="F" horiz-adv-x="993" d="M295 1378V829H886V692H295V0H143V1516H909V1378H295Z" />
<glyph unicode="G" glyph-name="G" horiz-adv-x="1785" d="M1695 696Q1670 387 1437 179Q1206 -27 894 -27Q567 -27 326 201Q81 433 81 758Q81 1086 324 1316Q562 1542 892 1542Q1267 1542 1511 1264Q1577 1190 1609 1112H1433Q1355 1247 1202 1328Q1055 1405
894 1405Q623 1405 429 1216Q233 1026 233 756Q233 484 431 296Q627 111 900 111Q1105 111 1281 236Q1463 365 1513 559H667V696H1695Z" />
<glyph unicode="H" glyph-name="H" horiz-adv-x="1398" d="M1091 0V711H307V0H155V1516H307V848H1091V1516H1242V0H1091Z" />
<glyph unicode="I" glyph-name="I" horiz-adv-x="462" d="M155 0V1516H307V0H155Z" />
<glyph unicode="J" glyph-name="J" horiz-adv-x="987" d="M822 409L818 335Q810 251 784 193Q689 -27 424 -27Q251 -27 136 81Q21 189 12 360H162Q179 111 426 111Q577 111 633 227Q656 274 665 344Q671 396 671 475V1516H823L822 409Z" />
<glyph unicode="K" glyph-name="K" horiz-adv-x="1210" d="M1019 0L513 657L317 416V0H165V1516H317V645H321L1015 1516H1209L609 776L1209 0H1019Z" />
<glyph unicode="L" glyph-name="L" horiz-adv-x="946" d="M167 0V1516H319V137H945V0H167Z" />
<glyph unicode="M" glyph-name="M" horiz-adv-x="1882" d="M1574 0V1350H1570L1003 0H874L311 1350H307V0H155V1516H388L939 225L1492 1516H1726V0H1574Z" />
<glyph unicode="N" glyph-name="N" horiz-adv-x="1515" d="M1208 0L309 1333H305V0H153V1516H358L1204 258H1208V1516H1359V0H1208Z" />
<glyph unicode="O" glyph-name="O" horiz-adv-x="1779" d="M1692 432T1452 201Q1216 -27 889 -27Q567 -27 329 199Q88 429 88 750Q88 1080 323 1312Q557 1542 889 1542Q1217 1542 1453 1314Q1692 1084 1692 758Q1692 432 1452 201ZM1540 1023T1348 1214Q1156 1405
889 1405Q619 1405 429 1212Q240 1019 240 750Q240 488 434 299Q626 111 889 111Q1155 111 1347 300Q1540 489 1540 756Q1540 1023 1348 1214Z" />
<glyph unicode="P" glyph-name="P" horiz-adv-x="1212" d="M1154 827T966 698Q888 645 778 625Q732 617 677 613Q633 610 575 610H305V0H153V1516H575Q633 1516 677 1513Q732 1509 778 1501Q888 1480 966 1427Q1154 1299 1154 1063Q1154 827 966 698ZM1003 1256T827
1339Q770 1367 700 1374L635 1378H305V748H635L700 752Q770 759 827 786Q1003 870 1003 1063Q1003 1256 827 1339Z" />
<glyph unicode="Q" glyph-name="Q" horiz-adv-x="1783" d="M1713 426T1463 193Q1563 108 1689 111V-27Q1495 -27 1351 104Q1153 -27 896 -27Q565 -27 326 196Q81 423 81 752Q81 1091 321 1318Q556 1542 898 1542Q1243 1542 1477 1317Q1713 1089 1713 745Q1713
426 1463 193ZM1562 1024T1368 1215Q1175 1405 900 1405Q621 1405 427 1214Q233 1022 233 743Q233 654 259 571Q416 623 579 623Q811 623 1000 534Q1085 494 1177 430Q1254 376 1353 291Q1451 387 1504 499Q1562 621 1562 750Q1562 1024 1368 1215ZM1184 248Q1151
274 1132 289Q1070 337 1027 362Q821 485 556 485Q422 485 321 442Q350 384 409 322Q604 111 900 111Q1095 111 1234 209L1184 248Z" />
<glyph unicode="R" glyph-name="R" horiz-adv-x="1243" d="M1171 835T1041 705Q914 578 721 565L1149 0H958L444 686L608 687Q711 690 770 709Q1020 785 1020 1030Q1020 1231 854 1321Q789 1356 711 1369Q653 1378 559 1378H295V0H143V1516H528Q579 1516 620 1514Q673
1511 717 1506Q829 1492 901 1458Q1171 1328 1171 1026Q1171 835 1041 705Z" />
<glyph unicode="S" glyph-name="S" horiz-adv-x="1019" d="M969 230T834 101Q701 -27 512 -27Q309 -27 179 97Q48 221 45 424H197Q210 111 512 111Q639 111 727 197Q817 285 817 412Q817 549 710 632Q667 665 602 693Q553 713 479 735Q384 763 327 788Q251 820
202 860Q86 956 86 1135Q86 1312 211 1428Q334 1542 512 1542Q688 1542 809 1425Q932 1306 932 1130H780Q780 1242 702 1323Q623 1405 512 1405Q397 1405 318 1330Q238 1255 238 1141Q238 1009 360 940Q405 915 477 892L598 856Q771 804 865 701Q969 587 969 418Q969
230 834 101Z" />
<glyph unicode="T" glyph-name="T" horiz-adv-x="872" d="M512 1378V0H360V1378H12V1516H858V1378H512Z" />
<glyph unicode="U" glyph-name="U" horiz-adv-x="1341" d="M1185 571Q1185 486 1173 410Q1158 321 1128 256Q996 -27 669 -27Q342 -27 210 256Q180 321 166 410Q153 486 153 571V1516H305V571Q305 497 315 431Q328 347 356 297Q458 111 669 111Q880 111 982 297Q1010
347 1023 431Q1034 497 1034 571V1516H1185V571Z" />
<glyph unicode="V" glyph-name="V" horiz-adv-x="1437" d="M790 0H641L16 1516H184L718 188L1255 1516H1419L790 0Z" />
<glyph unicode="W" glyph-name="W" horiz-adv-x="1966" d="M1511 0H1318L985 1243H980L649 0H454L22 1516H178L548 195H552L913 1516H1054L1417 197H1421L1791 1516H1945L1511 0Z" />
<glyph unicode="X" glyph-name="X" horiz-adv-x="1247" d="M1052 0L626 647L194 0H16L530 774L45 1516H223L626 909L1026 1516H1202L714 774L1233 0H1052Z" />
<glyph unicode="Y" glyph-name="Y" horiz-adv-x="1212" d="M680 506V0H528V506L2 1516H170L602 666L1046 1516H1212L680 506Z" />
<glyph unicode="Z" glyph-name="Z" horiz-adv-x="983" d="M24 0V137L769 1378H47V1516H939V1378L196 137H962V0H24Z" />
<glyph unicode="[" glyph-name="bracketleft" horiz-adv-x="718" d="M690 -367Q272 -252 272 199V973Q272 1314 540 1477Q615 1524 690 1542V1389Q424 1273 424 973V225Q424 57 479 -40Q540 -146 690 -213V-367Z" />
<glyph unicode="\" glyph-name="backslash" horiz-adv-x="1239" d="M821 -205L241 1516H403L976 -205H821Z" />
<glyph unicode="]" glyph-name="bracketright" horiz-adv-x="718" d="M446 199Q446 -252 28 -367V-213Q178 -146 239 -40Q294 57 294 225V973Q294 1273 28 1389V1542Q103 1524 178 1477Q446 1314 446 973V199Z" />
<glyph unicode="^" glyph-name="asciicircum" horiz-adv-x="1241" d="M989 629L618 1366L253 629H108L554 1516H686L1132 629H989Z" />
<glyph unicode="_" glyph-name="underscore" horiz-adv-x="1024" d="M0 -256V-154H1024V-256H0Z" />
<glyph unicode="`" glyph-name="grave" horiz-adv-x="718" d="M374 1118L194 1516H346L526 1118H374Z" />
<glyph unicode="a" glyph-name="a" horiz-adv-x="1398" d="M1128 0V197H1124Q976 -27 688 -27Q435 -27 261 142Q86 311 86 563Q86 813 263 982Q438 1149 688 1149Q981 1149 1124 924H1128V1120H1272V0H1128ZM1137 748T1008 883Q877 1020 688 1020Q489 1020 359
888Q229 756 229 557Q229 361 360 231Q491 102 688 102Q877 102 1008 237Q1137 370 1137 559Q1137 748 1008 883Z" />
<glyph unicode="b" glyph-name="b" horiz-adv-x="1396" d="M1325 311T1150 142Q976 -27 723 -27Q440 -27 286 197H282V0H139V1516H282V924H286Q444 1149 723 1149Q973 1149 1147 982Q1325 813 1325 563Q1325 311 1150 142ZM1181 756T1052 888Q922 1020 723 1020Q534
1020 403 883Q274 748 274 559Q274 370 403 237Q534 102 723 102Q920 102 1050 231Q1181 361 1181 557Q1181 756 1052 888Z" />
<glyph unicode="c" glyph-name="c" horiz-adv-x="1325" d="M1242 330Q1061 -27 685 -27Q435 -27 260 141Q83 311 83 559Q83 805 261 978Q438 1149 685 1149Q870 1149 1020 1052Q1174 952 1242 782H1084Q959 1020 689 1020Q496 1020 362 888Q226 756 226 563Q226
368 360 235Q494 102 689 102Q966 102 1084 330H1242Z" />
<glyph unicode="d" glyph-name="d" horiz-adv-x="1402" d="M1121 0V197H1117Q967 -27 681 -27Q428 -27 254 142Q79 311 79 563Q79 813 256 982Q431 1149 681 1149Q966 1149 1117 928H1121V1516H1265V0H1121ZM1130 748T1001 883Q870 1020 681 1020Q482 1020 352
888Q222 756 222 557Q222 361 353 231Q484 102 681 102Q870 102 1001 237Q1130 370 1130 559Q1130 748 1001 883Z" />
<glyph unicode="e" glyph-name="e" horiz-adv-x="1331" d="M1244 508H224Q232 343 363 222Q493 102 659 102Q791 102 901 172Q1015 245 1060 367H1212Q1150 191 998 82Q846 -27 661 -27Q419 -27 247 146Q77 317 77 559Q77 800 247 974Q419 1149 659 1149Q903 1149
1075 970Q1246 793 1246 549L1244 508ZM1099 637Q1071 803 950 911Q828 1020 661 1020Q495 1020 372 911Q251 803 224 637H1099Z" />
<glyph unicode="f" glyph-name="f" horiz-adv-x="643" d="M355 991V0H212V991H38V1120H212L214 1162Q215 1186 217 1204Q221 1251 231 1288Q268 1427 386 1489Q483 1540 642 1542V1409Q355 1409 355 1128V1120H642V991H355Z" />
<glyph unicode="g" glyph-name="g" horiz-adv-x="1378" d="M1240 176Q1240 112 1237 67Q1233 9 1224 -38Q1201 -150 1138 -233Q981 -440 693 -440Q487 -440 335 -334Q177 -225 120 -29H272Q384 -311 691 -311Q879 -311 989 -196Q1097 -83 1097 106V205H1093Q1034
93 910 31Q796 -27 661 -27Q417 -27 247 142Q75 312 75 555Q75 800 245 974Q416 1149 661 1149Q945 1149 1093 920H1097V1120H1240V176ZM1105 746T977 882Q847 1020 661 1020Q474 1020 345 882Q218 748 218 559Q218 372 345 239Q474 102 661 102Q845 102 976 239Q1105
373 1105 559Q1105 746 977 882Z" />
<glyph unicode="h" glyph-name="h" horiz-adv-x="1249" d="M968 0V616Q968 706 944 782Q917 871 861 924Q759 1020 618 1020Q476 1020 374 924Q319 872 292 786Q269 712 269 627V0H126V1516H269V977H273Q384 1149 618 1149Q853 1149 985 999Q1111 855 1111 616V0H968Z" />
<glyph unicode="i" glyph-name="i" horiz-adv-x="409" d="M133 1257V1516H276V1257H133ZM133 0V1120H276V0H133Z" />
<glyph unicode="j" glyph-name="j" horiz-adv-x="415" d="M137 1257V1516H281V1257H137ZM281 53Q281 -69 261 -140Q233 -237 158 -303Q58 -390 -90 -393V-252Q48 -248 100 -148Q121 -106 130 -44Q137 5 137 78V1120H281V53Z" />
<glyph unicode="k" glyph-name="k" horiz-adv-x="1028" d="M835 0L467 442L286 213V0H143V1516H286V436H290L813 1120H997L555 555L1020 0H835Z" />
<glyph unicode="l" glyph-name="l" horiz-adv-x="409" d="M133 0V1516H276V0H133Z" />
<glyph unicode="m" glyph-name="m" horiz-adv-x="1921" d="M1642 0V649Q1642 812 1573 909Q1493 1020 1337 1020Q1181 1020 1102 909Q1032 812 1032 649V0H889V649Q889 812 819 909Q740 1020 584 1020Q427 1020 348 909Q278 812 278 649V0H135V1120H278V991Q378
1149 584 1149Q840 1149 960 934Q1095 1149 1337 1149Q1547 1149 1669 1010Q1786 878 1786 666V0H1642Z" />
<glyph unicode="n" glyph-name="n" horiz-adv-x="1249" d="M975 0V616Q975 706 951 782Q924 871 868 924Q766 1020 625 1020Q483 1020 381 924Q326 872 299 786Q276 712 276 627V0H133V1120H276V977H280Q391 1149 625 1149Q860 1149 992 999Q1118 855 1118 616V0H975Z" />
<glyph unicode="o" glyph-name="o" horiz-adv-x="1341" d="M1257 320T1084 147Q911 -27 670 -27Q433 -27 260 145Q86 317 86 553Q86 797 256 972Q427 1149 670 1149Q909 1149 1083 975Q1257 801 1257 561Q1257 320 1084 147ZM1114 751T985 885Q855 1020 672 1020Q484
1020 355 880Q229 744 229 555Q229 371 358 237Q488 102 672 102Q862 102 990 240Q1114 375 1114 567Q1114 751 985 885Z" />
<glyph unicode="p" glyph-name="p" horiz-adv-x="1396" d="M1317 311T1142 142Q968 -27 715 -27Q432 -27 278 197H274V-393H131V1120H274V924H278Q437 1149 715 1149Q965 1149 1139 982Q1317 813 1317 563Q1317 311 1142 142ZM1173 756T1044 888Q914 1020 715
1020Q526 1020 395 883Q266 748 266 559Q266 370 395 237Q526 102 715 102Q912 102 1042 231Q1173 361 1173 557Q1173 756 1044 888Z" />
<glyph unicode="q" glyph-name="q" horiz-adv-x="1396" d="M1117 -393V197H1113Q968 -27 677 -27Q424 -27 250 142Q75 311 75 563Q75 813 252 982Q427 1149 677 1149Q968 1149 1113 924H1117V1120H1261V-393H1117ZM1126 748T997 883Q866 1020 677 1020Q478 1020
348 888Q218 756 218 557Q218 361 349 231Q480 102 677 102Q866 102 997 237Q1126 370 1126 559Q1126 748 997 883Z" />
<glyph unicode="r" glyph-name="r" horiz-adv-x="616" d="M596 997Q276 971 276 655V0H133V1120H276V958H280Q324 1059 407 1104Q475 1140 596 1149V997Z" />
<glyph unicode="s" glyph-name="s" horiz-adv-x="794" d="M745 -27T393 -27Q243 -27 146 71Q49 169 49 319V332H192Q196 102 393 102Q602 102 602 303Q602 401 521 459Q489 482 437 504L342 541Q282 564 246 582Q196 608 163 638Q82 712 82 838Q82 975 173 1062Q263
1149 401 1149Q530 1149 618 1061Q706 973 706 844H563Q552 1020 395 1020Q225 1020 225 852Q225 768 306 718Q337 699 390 679L413 670Q421 667 437 661L485 643Q543 620 581 599Q631 572 664 538Q745 455 745 315Q745 -27 393 -27Z" />
<glyph unicode="t" glyph-name="t" horiz-adv-x="694" d="M407 991V0H264V991H28V1120H264V1516H407V1120H675V991H407Z" />
<glyph unicode="u" glyph-name="u" horiz-adv-x="1245" d="M972 0V174H968Q921 75 819 22Q726 -27 609 -27Q357 -27 224 141Q169 211 145 312Q126 394 126 502V1120H269V504Q269 316 343 216Q428 102 609 102Q751 102 847 193Q915 258 942 347Q964 418 964 528V1120H1107V0H972Z"
/>
<glyph unicode="v" glyph-name="v" horiz-adv-x="1134" d="M645 0H487L14 1120H168L563 178L964 1120H1118L645 0Z" />
<glyph unicode="w" glyph-name="w" horiz-adv-x="1701" d="M1251 0H1089L851 745H847L614 0H452L26 1120H176L528 182H532L788 985H913L1171 182H1175L1531 1120H1679L1251 0Z" />
<glyph unicode="x" glyph-name="x" horiz-adv-x="983" d="M788 0L491 449L194 0H24L407 569L24 1120H196L491 688L784 1120H958L575 569L958 0H788Z" />
<glyph unicode="y" glyph-name="y" horiz-adv-x="1097" d="M421 -393H272L466 37L30 1120H182L538 227L919 1120H1070L421 -393Z" />
<glyph unicode="z" glyph-name="z" horiz-adv-x="870" d="M20 0V125L641 991H40V1120H813V991L198 129H849V0H20Z" />
<glyph unicode="{" glyph-name="braceleft" horiz-adv-x="718" d="M542 -387Q437 -387 378 -303Q325 -228 325 -119V254Q325 345 281 414Q230 493 143 498V629Q227 633 279 714Q325 785 325 874V1247Q325 1357 378 1431Q437 1516 542 1516H678V1393H575Q517 1393
493 1329Q477 1287 477 1217V842Q477 750 432 674Q383 589 299 567V561Q335 555 370 530Q426 492 454 422Q477 363 477 287V-88Q477 -158 493 -201Q517 -264 575 -264H678V-387H542Z" />
<glyph unicode="|" glyph-name="bar" horiz-adv-x="1376" d="M612 -455V1593H764V-455H612Z" />
<glyph unicode="}" glyph-name="braceright" horiz-adv-x="718" d="M575 498Q487 493 437 414Q392 345 392 254V-119Q392 -228 340 -303Q280 -387 175 -387H40V-264H142Q201 -264 225 -201Q241 -158 241 -88V287Q241 363 264 422Q291 492 347 530Q382 555 419
561V567Q335 589 285 674Q241 750 241 842V1217Q241 1287 225 1329Q201 1393 142 1393H40V1516H175Q280 1516 340 1431Q392 1357 392 1247V874Q392 785 438 714Q490 633 575 629V498Z" />
<glyph unicode="~" glyph-name="asciitilde" horiz-adv-x="1241" d="M1093 551Q1032 464 987 428Q920 375 837 375Q783 375 722 398Q686 412 616 449Q546 485 509 499Q448 522 393 522Q332 522 285 471Q252 436 221 367L147 469Q237 645 403 645Q456 645 524 622Q572
606 645 571L701 544Q733 529 753 521Q808 498 839 498Q894 498 945 552Q964 573 986 603Q993 614 1003 629L1019 653L1093 551Z" />
</font>
</defs>
</svg>
